<svg width="549" height="96" viewBox="0 0 549 96" fill="none" xmlns="http://www.w3.org/2000/svg">
<path d="M0.368 94V5.67999H12.144V50.608L53.872 5.67999H68.336L30.96 47.024L53.488 75.312C57.456 80.304 61.552 82.992 66.544 82.992H69.36V94H65.264C56.048 94 48.88 90.032 43.504 82.352L22.768 55.984L12.144 67.76V94H0.368ZM108.811 95.536C90.123 95.536 76.171 80.816 76.171 61.36C76.171 41.904 90.123 27.184 108.811 27.184C119.691 27.184 128.651 32.304 134.155 40.496V28.72H145.163V76.848C145.163 80.816 147.723 83.376 151.691 83.376H152.971V94H149.515C140.683 94 135.435 89.776 134.411 81.968C128.907 90.288 119.819 95.536 108.811 95.536ZM110.859 84.912C124.171 84.912 134.155 74.8 134.155 61.36C134.155 47.92 124.171 37.808 110.859 37.808C97.419 37.808 87.435 47.92 87.435 61.36C87.435 74.8 97.419 84.912 110.859 84.912ZM168.187 94L163.835 85.168C168.571 82.864 172.923 80.048 176.891 76.592C169.467 66.096 165.243 51.632 165.243 35.12C165.243 12.464 174.203 0.303993 187.771 0.303993C200.699 0.303993 209.019 11.568 209.019 30.64C209.019 47.536 202.747 64.048 191.995 76.464C196.987 80.816 203.003 83.376 209.787 83.376H213.115V94H209.019C199.419 94 190.843 90.544 183.931 84.4C179.195 88.368 173.947 91.568 168.187 94ZM176.507 34.224C176.507 47.408 179.579 59.184 184.955 67.888C193.019 57.392 197.755 44.208 197.755 30.512C197.755 18.096 193.787 10.928 187.515 10.928C180.987 10.928 176.507 18.48 176.507 34.224ZM256.202 95.536C236.106 95.536 221.13 80.816 221.13 61.36C221.13 41.904 236.106 27.184 255.818 27.184C275.658 27.184 290.506 41.904 290.506 61.36C290.506 62.64 290.378 64.688 290.25 65.968H232.906C234.826 77.488 244.042 85.424 256.33 85.424C265.418 85.424 273.354 81.072 277.066 74.544H289.354C284.234 87.088 271.562 95.536 256.202 95.536ZM255.818 37.296C244.17 37.296 235.21 44.976 233.034 56.112H278.73C276.682 44.976 267.466 37.296 255.818 37.296ZM306.524 94V28.72H317.532V38.576C322.652 31.28 330.844 27.184 341.084 27.184C356.956 27.184 367.58 37.68 367.58 53.68V76.848C367.58 80.816 370.14 83.376 374.108 83.376H375.26V94H371.932C362.076 94 356.572 88.752 356.572 79.152V57.136C356.572 45.488 349.148 37.808 337.5 37.808C325.468 37.808 317.532 45.616 317.532 57.392V94H306.524ZM416.866 95.536C398.178 95.536 384.226 80.816 384.226 61.36C384.226 41.904 398.178 27.184 416.866 27.184C427.746 27.184 436.706 32.304 442.21 40.496V1.84H453.218V76.848C453.218 80.816 455.778 83.376 459.746 83.376H461.026V94H457.57C448.738 94 443.49 89.776 442.466 81.968C436.962 90.288 427.874 95.536 416.866 95.536ZM418.914 84.912C432.226 84.912 442.21 74.8 442.21 61.36C442.21 47.92 432.226 37.808 418.914 37.808C405.474 37.808 395.49 47.92 395.49 61.36C395.49 74.8 405.474 84.912 418.914 84.912ZM503.911 95.536C485.223 95.536 471.271 80.816 471.271 61.36C471.271 41.904 485.223 27.184 503.911 27.184C514.791 27.184 523.751 32.304 529.255 40.496V28.72H540.263V76.848C540.263 80.816 542.823 83.376 546.791 83.376H548.071V94H544.615C535.783 94 530.535 89.776 529.511 81.968C524.007 90.288 514.919 95.536 503.911 95.536ZM505.959 84.912C519.271 84.912 529.255 74.8 529.255 61.36C529.255 47.92 519.271 37.808 505.959 37.808C492.519 37.808 482.535 47.92 482.535 61.36C482.535 74.8 492.519 84.912 505.959 84.912Z" fill="#FF641C"/>
</svg>
